<svg xmlns="http://www.w3.org/2000/svg" viewBox="-1.5 -1.5 66 66" fill="#000"><defs><g id="s" transform="scale(2.4)"><path d="M-0.2456 -0.5Q-0.1096 -0.5 -0.0318 -0.3425Q-0.0037 -0.2802 -0.0023 -0.2473H-0.0003Q0.0231 -0.3559 0.0848 -0.4276Q0.1572 -0.5 0.2477 -0.5Q0.3877 -0.5 0.4722 -0.3499Q0.4936 -0.2942 0.4936 -0.2453Q0.4936 -0.0777 0.3542 0.0744L-0.0003 0.5H-0.0044L-0.381 0.0382Q-0.4936 -0.0992 -0.4936 -0.2453Q-0.4936 -0.3867 -0.3603 -0.4698Q-0.304 -0.5 -0.2456 -0.5Z"/></g></defs><use href="#s" x="14" y="0"/><use href="#s" x="24" y="0"/><use href="#s" x="28" y="0"/><use href="#s" x="33" y="0"/><use href="#s" x="34" y="0"/><use href="#s" x="35" y="0"/><use href="#s" x="41" y="0"/><use href="#s" x="42" y="0"/><use href="#s" x="43" y="0"/><use href="#s" x="45" y="0"/><use href="#s" x="46" y="0"/><use href="#s" x="47" y="0"/><use href="#s" x="48" y="0"/><use href="#s" x="52" y="0"/><use href="#s" x="53" y="0"/><use href="#s" x="54" y="0"/><use href="#s" x="56" y="0"/><use href="#s" x="58" y="0"/><use href="#s" x="59" y="0"/><use href="#s" x="60" y="0"/><use href="#s" x="61" y="0"/><use href="#s" x="62" y="0"/><use href="#s" x="63" y="0"/><use href="#s" x="3" y="1"/><use href="#s" x="23" y="1"/><use href="#s" x="25" y="1"/><use href="#s" x="31" y="1"/><use href="#s" x="32" y="1"/><use href="#s" x="33" y="1"/><use href="#s" x="34" y="1"/><use href="#s" x="35" y="1"/><use href="#s" x="37" y="1"/><use href="#s" x="42" y="1"/><use href="#s" x="43" y="1"/><use href="#s" x="45" y="1"/><use href="#s" x="47" y="1"/><use href="#s" x="48" y="1"/><use href="#s" x="51" y="1"/><use href="#s" x="52" y="1"/><use href="#s" x="53" y="1"/><use href="#s" x="55" y="1"/><use href="#s" x="56" y="1"/><use href="#s" x="57" y="1"/><use href="#s" x="58" y="1"/><use href="#s" x="59" y="1"/><use href="#s" x="60" y="1"/><use href="#s" x="61" y="1"/><use href="#s" x="62" y="1"/><use href="#s" x="63" y="1"/><use href="#s" x="26" y="2"/><use href="#s" x="30" y="2"/><use href="#s" x="31" y="2"/><use href="#s" x="33" y="2"/><use href="#s" x="37" y="2"/><use href="#s" x="38" y="2"/><use href="#s" x="40" y="2"/><use href="#s" x="41" y="2"/><use href="#s" x="43" y="2"/><use href="#s" x="45" y="2"/><use href="#s" x="50" y="2"/><use href="#s" x="52" y="2"/><use href="#s" x="54" y="2"/><use href="#s" x="56" y="2"/><use href="#s" x="58" y="2"/><use href="#s" x="59" y="2"/><use href="#s" x="60" y="2"/><use href="#s" x="61" y="2"/><use href="#s" x="62" y="2"/><use href="#s" x="63" y="2"/><use href="#s" x="12" y="3"/><use href="#s" x="15" y="3"/><use href="#s" x="17" y="3"/><use href="#s" x="21" y="3"/><use href="#s" x="32" y="3"/><use href="#s" x="33" y="3"/><use href="#s" x="34" y="3"/><use href="#s" x="35" y="3"/><use href="#s" x="43" y="3"/><use href="#s" x="44" y="3"/><use href="#s" x="45" y="3"/><use href="#s" x="50" y="3"/><use href="#s" x="52" y="3"/><use href="#s" x="55" y="3"/><use href="#s" x="56" y="3"/><use href="#s" x="57" y="3"/><use href="#s" x="58" y="3"/><use href="#s" x="59" y="3"/><use href="#s" x="60" y="3"/><use href="#s" x="61" y="3"/><use href="#s" x="63" y="3"/><use href="#s" x="6" y="4"/><use href="#s" x="12" y="4"/><use href="#s" x="20" y="4"/><use href="#s" x="29" y="4"/><use href="#s" x="34" y="4"/><use href="#s" x="36" y="4"/><use href="#s" x="37" y="4"/><use href="#s" x="38" y="4"/><use href="#s" x="40" y="4"/><use href="#s" x="49" y="4"/><use href="#s" x="50" y="4"/><use href="#s" x="51" y="4"/><use href="#s" x="53" y="4"/><use href="#s" x="54" y="4"/><use href="#s" x="55" y="4"/><use href="#s" x="56" y="4"/><use href="#s" x="60" y="4"/><use href="#s" x="62" y="4"/><use href="#s" x="63" y="4"/><use href="#s" x="3" y="5"/><use href="#s" x="32" y="5"/><use href="#s" x="34" y="5"/><use href="#s" x="37" y="5"/><use href="#s" x="39" y="5"/><use href="#s" x="41" y="5"/><use href="#s" x="42" y="5"/><use href="#s" x="43" y="5"/><use href="#s" x="44" y="5"/><use href="#s" x="46" y="5"/><use href="#s" x="50" y="5"/><use href="#s" x="52" y="5"/><use href="#s" x="54" y="5"/><use href="#s" x="55" y="5"/><use href="#s" x="56" y="5"/><use href="#s" x="57" y="5"/><use href="#s" x="58" y="5"/><use href="#s" x="59" y="5"/><use href="#s" x="60" y="5"/><use href="#s" x="62" y="5"/><use href="#s" x="63" y="5"/><use href="#s" x="8" y="6"/><use href="#s" x="19" y="6"/><use href="#s" x="29" y="6"/><use href="#s" x="33" y="6"/><use href="#s" x="37" y="6"/><use href="#s" x="40" y="6"/><use href="#s" x="42" y="6"/><use href="#s" x="45" y="6"/><use href="#s" x="46" y="6"/><use href="#s" x="47" y="6"/><use href="#s" x="48" y="6"/><use href="#s" x="49" y="6"/><use href="#s" x="52" y="6"/><use href="#s" x="53" y="6"/><use href="#s" x="54" y="6"/><use href="#s" x="55" y="6"/><use href="#s" x="56" y="6"/><use href="#s" x="57" y="6"/><use href="#s" x="58" y="6"/><use href="#s" x="60" y="6"/><use href="#s" x="61" y="6"/><use href="#s" x="62" y="6"/><use href="#s" x="63" y="6"/><use href="#s" x="4" y="7"/><use href="#s" x="7" y="7"/><use href="#s" x="14" y="7"/><use href="#s" x="33" y="7"/><use href="#s" x="36" y="7"/><use href="#s" x="38" y="7"/><use href="#s" x="42" y="7"/><use href="#s" x="45" y="7"/><use href="#s" x="49" y="7"/><use href="#s" x="50" y="7"/><use href="#s" x="52" y="7"/><use href="#s" x="53" y="7"/><use href="#s" x="55" y="7"/><use href="#s" x="56" y="7"/><use href="#s" x="57" y="7"/><use href="#s" x="59" y="7"/><use href="#s" x="61" y="7"/><use href="#s" x="7" y="8"/><use href="#s" x="27" y="8"/><use href="#s" x="29" y="8"/><use href="#s" x="34" y="8"/><use href="#s" x="35" y="8"/><use href="#s" x="37" y="8"/><use href="#s" x="39" y="8"/><use href="#s" x="44" y="8"/><use href="#s" x="45" y="8"/><use href="#s" x="48" y="8"/><use href="#s" x="51" y="8"/><use href="#s" x="53" y="8"/><use href="#s" x="54" y="8"/><use href="#s" x="55" y="8"/><use href="#s" x="56" y="8"/><use href="#s" x="57" y="8"/><use href="#s" x="58" y="8"/><use href="#s" x="61" y="8"/><use href="#s" x="62" y="8"/><use href="#s" x="63" y="8"/><use href="#s" x="18" y="9"/><use href="#s" x="32" y="9"/><use href="#s" x="38" y="9"/><use href="#s" x="42" y="9"/><use href="#s" x="47" y="9"/><use href="#s" x="48" y="9"/><use href="#s" x="53" y="9"/><use href="#s" x="55" y="9"/><use href="#s" x="56" y="9"/><use href="#s" x="60" y="9"/><use href="#s" x="63" y="9"/><use href="#s" x="15" y="10"/><use href="#s" x="18" y="10"/><use href="#s" x="28" y="10"/><use href="#s" x="29" y="10"/><use href="#s" x="35" y="10"/><use href="#s" x="38" y="10"/><use href="#s" x="39" y="10"/><use href="#s" x="41" y="10"/><use href="#s" x="42" y="10"/><use href="#s" x="43" y="10"/><use href="#s" x="46" y="10"/><use href="#s" x="51" y="10"/><use href="#s" x="52" y="10"/><use href="#s" x="53" y="10"/><use href="#s" x="54" y="10"/><use href="#s" x="55" y="10"/><use href="#s" x="56" y="10"/><use href="#s" x="59" y="10"/><use href="#s" x="60" y="10"/><use href="#s" x="61" y="10"/><use href="#s" x="62" y="10"/><use href="#s" x="6" y="11"/><use href="#s" x="10" y="11"/><use href="#s" x="13" y="11"/><use href="#s" x="20" y="11"/><use href="#s" x="24" y="11"/><use href="#s" x="27" y="11"/><use href="#s" x="28" y="11"/><use href="#s" x="32" y="11"/><use href="#s" x="33" y="11"/><use href="#s" x="35" y="11"/><use href="#s" x="37" y="11"/><use href="#s" x="38" y="11"/><use href="#s" x="39" y="11"/><use href="#s" x="41" y="11"/><use href="#s" x="45" y="11"/><use href="#s" x="48" y="11"/><use href="#s" x="49" y="11"/><use href="#s" x="50" y="11"/><use href="#s" x="53" y="11"/><use href="#s" x="54" y="11"/><use href="#s" x="58" y="11"/><use href="#s" x="60" y="11"/><use href="#s" x="61" y="11"/><use href="#s" x="62" y="11"/><use href="#s" x="16" y="12"/><use href="#s" x="28" y="12"/><use href="#s" x="31" y="12"/><use href="#s" x="36" y="12"/><use href="#s" x="39" y="12"/><use href="#s" x="44" y="12"/><use href="#s" x="45" y="12"/><use href="#s" x="47" y="12"/><use href="#s" x="49" y="12"/><use href="#s" x="51" y="12"/><use href="#s" x="52" y="12"/><use href="#s" x="53" y="12"/><use href="#s" x="55" y="12"/><use href="#s" x="58" y="12"/><use href="#s" x="59" y="12"/><use href="#s" x="61" y="12"/><use href="#s" x="63" y="12"/><use href="#s" x="18" y="13"/><use href="#s" x="24" y="13"/><use href="#s" x="25" y="13"/><use href="#s" x="31" y="13"/><use href="#s" x="34" y="13"/><use href="#s" x="35" y="13"/><use href="#s" x="36" y="13"/><use href="#s" x="37" y="13"/><use href="#s" x="38" y="13"/><use href="#s" x="39" y="13"/><use href="#s" x="40" y="13"/><use href="#s" x="45" y="13"/><use href="#s" x="46" y="13"/><use href="#s" x="49" y="13"/><use href="#s" x="52" y="13"/><use href="#s" x="58" y="13"/><use href="#s" x="60" y="13"/><use href="#s" x="61" y="13"/><use href="#s" x="63" y="13"/><use href="#s" x="17" y="14"/><use href="#s" x="26" y="14"/><use href="#s" x="29" y="14"/><use href="#s" x="30" y="14"/><use href="#s" x="35" y="14"/><use href="#s" x="42" y="14"/><use href="#s" x="45" y="14"/><use href="#s" x="46" y="14"/><use href="#s" x="47" y="14"/><use href="#s" x="51" y="14"/><use href="#s" x="52" y="14"/><use href="#s" x="53" y="14"/><use href="#s" x="54" y="14"/><use href="#s" x="56" y="14"/><use href="#s" x="58" y="14"/><use href="#s" x="31" y="15"/><use href="#s" x="34" y="15"/><use href="#s" x="36" y="15"/><use href="#s" x="37" y="15"/><use href="#s" x="41" y="15"/><use href="#s" x="42" y="15"/><use href="#s" x="44" y="15"/><use href="#s" x="46" y="15"/><use href="#s" x="60" y="15"/><use href="#s" x="24" y="16"/><use href="#s" x="33" y="16"/><use href="#s" x="38" y="16"/><use href="#s" x="39" y="16"/><use href="#s" x="40" y="16"/><use href="#s" x="43" y="16"/><use href="#s" x="45" y="16"/><use href="#s" x="51" y="16"/><use href="#s" x="52" y="16"/><use href="#s" x="53" y="16"/><use href="#s" x="54" y="16"/><use href="#s" x="55" y="16"/><use href="#s" x="57" y="16"/><use href="#s" x="58" y="16"/><use href="#s" x="60" y="16"/><use href="#s" x="61" y="16"/><use href="#s" x="63" y="16"/><use href="#s" x="0" y="17"/><use href="#s" x="17" y="17"/><use href="#s" x="27" y="17"/><use href="#s" x="31" y="17"/><use href="#s" x="34" y="17"/><use href="#s" x="41" y="17"/><use href="#s" x="42" y="17"/><use href="#s" x="44" y="17"/><use href="#s" x="47" y="17"/><use href="#s" x="51" y="17"/><use href="#s" x="60" y="17"/><use href="#s" x="61" y="17"/><use href="#s" x="63" y="17"/><use href="#s" x="19" y="18"/><use href="#s" x="24" y="18"/><use href="#s" x="30" y="18"/><use href="#s" x="31" y="18"/><use href="#s" x="35" y="18"/><use href="#s" x="43" y="18"/><use href="#s" x="44" y="18"/><use href="#s" x="47" y="18"/><use href="#s" x="51" y="18"/><use href="#s" x="52" y="18"/><use href="#s" x="55" y="18"/><use href="#s" x="60" y="18"/><use href="#s" x="62" y="18"/><use href="#s" x="9" y="19"/><use href="#s" x="21" y="19"/><use href="#s" x="29" y="19"/><use href="#s" x="41" y="19"/><use href="#s" x="43" y="19"/><use href="#s" x="45" y="19"/><use href="#s" x="54" y="19"/><use href="#s" x="55" y="19"/><use href="#s" x="56" y="19"/><use href="#s" x="62" y="19"/><use href="#s" x="19" y="20"/><use href="#s" x="25" y="20"/><use href="#s" x="33" y="20"/><use href="#s" x="39" y="20"/><use href="#s" x="43" y="20"/><use href="#s" x="45" y="20"/><use href="#s" x="46" y="20"/><use href="#s" x="47" y="20"/><use href="#s" x="49" y="20"/><use href="#s" x="50" y="20"/><use href="#s" x="51" y="20"/><use href="#s" x="53" y="20"/><use href="#s" x="59" y="20"/><use href="#s" x="61" y="20"/><use href="#s" x="62" y="20"/><use href="#s" x="63" y="20"/><use href="#s" x="9" y="21"/><use href="#s" x="16" y="21"/><use href="#s" x="32" y="21"/><use href="#s" x="43" y="21"/><use href="#s" x="44" y="21"/><use href="#s" x="48" y="21"/><use href="#s" x="57" y="21"/><use href="#s" x="59" y="21"/><use href="#s" x="60" y="21"/><use href="#s" x="63" y="21"/><use href="#s" x="7" y="22"/><use href="#s" x="28" y="22"/><use href="#s" x="33" y="22"/><use href="#s" x="40" y="22"/><use href="#s" x="48" y="22"/><use href="#s" x="49" y="22"/><use href="#s" x="51" y="22"/><use href="#s" x="59" y="22"/><use href="#s" x="61" y="22"/><use href="#s" x="62" y="22"/><use href="#s" x="29" y="23"/><use href="#s" x="34" y="23"/><use href="#s" x="41" y="23"/><use href="#s" x="45" y="23"/><use href="#s" x="48" y="23"/><use href="#s" x="54" y="23"/><use href="#s" x="55" y="23"/><use href="#s" x="56" y="23"/><use href="#s" x="60" y="23"/><use href="#s" x="61" y="23"/><use href="#s" x="62" y="23"/><use href="#s" x="63" y="23"/><use href="#s" x="25" y="24"/><use href="#s" x="29" y="24"/><use href="#s" x="42" y="24"/><use href="#s" x="44" y="24"/><use href="#s" x="45" y="24"/><use href="#s" x="52" y="24"/><use href="#s" x="54" y="24"/><use href="#s" x="58" y="24"/><use href="#s" x="59" y="24"/><use href="#s" x="60" y="24"/><use href="#s" x="62" y="24"/><use href="#s" x="7" y="25"/><use href="#s" x="15" y="25"/><use href="#s" x="16" y="25"/><use href="#s" x="27" y="25"/><use href="#s" x="29" y="25"/><use href="#s" x="33" y="25"/><use href="#s" x="34" y="25"/><use href="#s" x="37" y="25"/><use href="#s" x="42" y="25"/><use href="#s" x="44" y="25"/><use href="#s" x="48" y="25"/><use href="#s" x="49" y="25"/><use href="#s" x="50" y="25"/><use href="#s" x="55" y="25"/><use href="#s" x="60" y="25"/><use href="#s" x="62" y="25"/><use href="#s" x="63" y="25"/><use href="#s" x="38" y="26"/><use href="#s" x="41" y="26"/><use href="#s" x="47" y="26"/><use href="#s" x="48" y="26"/><use href="#s" x="53" y="26"/><use href="#s" x="54" y="26"/><use href="#s" x="59" y="26"/><use href="#s" x="29" y="27"/><use href="#s" x="32" y="27"/><use href="#s" x="38" y="27"/><use href="#s" x="39" y="27"/><use href="#s" x="42" y="27"/><use href="#s" x="44" y="27"/><use href="#s" x="51" y="27"/><use href="#s" x="54" y="27"/><use href="#s" x="56" y="27"/><use href="#s" x="62" y="27"/><use href="#s" x="5" y="28"/><use href="#s" x="24" y="28"/><use href="#s" x="25" y="28"/><use href="#s" x="30" y="28"/><use href="#s" x="41" y="28"/><use href="#s" x="44" y="28"/><use href="#s" x="45" y="28"/><use href="#s" x="47" y="28"/><use href="#s" x="54" y="28"/><use href="#s" x="59" y="28"/><use href="#s" x="61" y="28"/><use href="#s" x="63" y="28"/><use href="#s" x="11" y="29"/><use href="#s" x="12" y="29"/><use href="#s" x="19" y="29"/><use href="#s" x="36" y="29"/><use href="#s" x="42" y="29"/><use href="#s" x="43" y="29"/><use href="#s" x="49" y="29"/><use href="#s" x="58" y="29"/><use href="#s" x="62" y="29"/><use href="#s" x="24" y="30"/><use href="#s" x="28" y="30"/><use href="#s" x="37" y="30"/><use href="#s" x="38" y="30"/><use href="#s" x="46" y="30"/><use href="#s" x="49" y="30"/><use href="#s" x="52" y="30"/><use href="#s" x="60" y="30"/><use href="#s" x="62" y="30"/><use href="#s" x="63" y="30"/><use href="#s" x="23" y="31"/><use href="#s" x="35" y="31"/><use href="#s" x="45" y="31"/><use href="#s" x="50" y="31"/><use href="#s" x="52" y="31"/><use href="#s" x="53" y="31"/><use href="#s" x="55" y="31"/><use href="#s" x="61" y="31"/><use href="#s" x="6" y="32"/><use href="#s" x="40" y="32"/><use href="#s" x="45" y="32"/><use href="#s" x="46" y="32"/><use href="#s" x="53" y="32"/><use href="#s" x="58" y="32"/><use href="#s" x="59" y="32"/><use href="#s" x="61" y="32"/><use href="#s" x="62" y="32"/><use href="#s" x="58" y="33"/><use href="#s" x="59" y="33"/><use href="#s" x="63" y="33"/><use href="#s" x="12" y="34"/><use href="#s" x="39" y="34"/><use href="#s" x="46" y="34"/><use href="#s" x="49" y="34"/><use href="#s" x="53" y="34"/><use href="#s" x="57" y="34"/><use href="#s" x="60" y="34"/><use href="#s" x="19" y="35"/><use href="#s" x="28" y="35"/><use href="#s" x="32" y="35"/><use href="#s" x="34" y="35"/><use href="#s" x="37" y="35"/><use href="#s" x="41" y="35"/><use href="#s" x="43" y="35"/><use href="#s" x="48" y="35"/><use href="#s" x="52" y="35"/><use href="#s" x="60" y="35"/><use href="#s" x="63" y="35"/><use href="#s" x="10" y="36"/><use href="#s" x="15" y="36"/><use href="#s" x="36" y="36"/><use href="#s" x="41" y="36"/><use href="#s" x="45" y="36"/><use href="#s" x="40" y="37"/><use href="#s" x="42" y="37"/><use href="#s" x="48" y="37"/><use href="#s" x="50" y="37"/><use href="#s" x="61" y="37"/><use href="#s" x="62" y="37"/><use href="#s" x="15" y="38"/><use href="#s" x="28" y="38"/><use href="#s" x="38" y="38"/><use href="#s" x="40" y="38"/><use href="#s" x="42" y="38"/><use href="#s" x="56" y="38"/><use href="#s" x="60" y="38"/><use href="#s" x="63" y="38"/><use href="#s" x="7" y="39"/><use href="#s" x="42" y="39"/><use href="#s" x="56" y="39"/><use href="#s" x="57" y="39"/><use href="#s" x="59" y="39"/><use href="#s" x="14" y="40"/><use href="#s" x="31" y="40"/><use href="#s" x="34" y="40"/><use href="#s" x="47" y="40"/><use href="#s" x="60" y="40"/><use href="#s" x="22" y="41"/><use href="#s" x="32" y="41"/><use href="#s" x="35" y="41"/><use href="#s" x="57" y="41"/><use href="#s" x="61" y="41"/><use href="#s" x="48" y="42"/><use href="#s" x="57" y="42"/><use href="#s" x="59" y="42"/><use href="#s" x="62" y="42"/><use href="#s" x="24" y="43"/><use href="#s" x="36" y="43"/><use href="#s" x="44" y="43"/><use href="#s" x="52" y="43"/><use href="#s" x="53" y="43"/><use href="#s" x="54" y="43"/><use href="#s" x="58" y="43"/><use href="#s" x="59" y="43"/><use href="#s" x="48" y="44"/><use href="#s" x="55" y="44"/><use href="#s" x="60" y="44"/><use href="#s" x="23" y="45"/><use href="#s" x="31" y="45"/><use href="#s" x="57" y="45"/><use href="#s" x="60" y="45"/><use href="#s" x="18" y="46"/><use href="#s" x="33" y="46"/><use href="#s" x="36" y="46"/><use href="#s" x="60" y="46"/><use href="#s" x="62" y="46"/><use href="#s" x="47" y="47"/><use href="#s" x="49" y="47"/><use href="#s" x="62" y="47"/><use href="#s" x="37" y="48"/><use href="#s" x="39" y="48"/><use href="#s" x="40" y="48"/><use href="#s" x="43" y="48"/><use href="#s" x="30" y="49"/><use href="#s" x="35" y="49"/><use href="#s" x="56" y="49"/><use href="#s" x="57" y="49"/><use href="#s" x="58" y="49"/><use href="#s" x="62" y="49"/><use href="#s" x="45" y="50"/><use href="#s" x="29" y="51"/><use href="#s" x="15" y="53"/><use href="#s" x="44" y="53"/><use href="#s" x="10" y="54"/><use href="#s" x="49" y="54"/><use href="#s" x="62" y="54"/><use href="#s" x="60" y="55"/><use href="#s" x="43" y="56"/><use href="#s" x="45" y="56"/><use href="#s" x="59" y="56"/><use href="#s" x="58" y="62"/></svg>
