<svg xmlns="http://www.w3.org/2000/svg" viewBox="-1.5 -1.5 66 66" fill="#000"><defs><g id="s" transform="scale(2.4)"><path d="M0.001 -0.5Q0.1444 -0.5 0.2121 -0.3479Q0.2208 -0.313 0.2229 -0.2755Q0.2229 -0.1971 0.1424 -0.0898L0.1022 -0.0496H0.1042Q0.1538 -0.0684 0.2101 -0.0684H0.2229Q0.3824 -0.0684 0.4467 0.067Q0.4621 0.1113 0.4621 0.1515Q0.4621 0.2889 0.3221 0.3586Q0.2952 0.3666 0.2477 0.3706Q0.0855 0.3706 0.0178 0.187H0.0158V0.193Q0.0158 0.4229 0.0707 0.496V0.5H-0.0687L-0.0727 0.496Q-0.0158 0.4102 -0.0158 0.187V0.185H-0.0178Q-0.0848 0.3706 -0.249 0.3706Q-0.377 0.3706 -0.4454 0.2359Q-0.4621 0.1903 -0.4621 0.1515Q-0.4621 -0.0047 -0.2973 -0.0603Q-0.253 -0.0684 -0.2188 -0.0684H-0.2128Q-0.1552 -0.0684 -0.1029 -0.0496H-0.1009V-0.0516Q-0.1572 -0.0992 -0.1766 -0.1454Q-0.2168 -0.2192 -0.2168 -0.2735V-0.2828Q-0.2168 -0.4176 -0.0727 -0.4873Q-0.0251 -0.5 0.001 -0.5Z"/></g></defs><use href="#s" x="32" y="1"/><use href="#s" x="58" y="2"/><use href="#s" x="53" y="6"/><use href="#s" x="60" y="6"/><use href="#s" x="61" y="6"/><use href="#s" x="60" y="7"/><use href="#s" x="47" y="8"/><use href="#s" x="58" y="9"/><use href="#s" x="59" y="9"/><use href="#s" x="63" y="9"/><use href="#s" x="62" y="10"/><use href="#s" x="47" y="11"/><use href="#s" x="33" y="12"/><use href="#s" x="49" y="12"/><use href="#s" x="50" y="12"/><use href="#s" x="50" y="13"/><use href="#s" x="51" y="14"/><use href="#s" x="59" y="14"/><use href="#s" x="30" y="15"/><use href="#s" x="42" y="15"/><use href="#s" x="48" y="15"/><use href="#s" x="49" y="16"/><use href="#s" x="53" y="16"/><use href="#s" x="61" y="16"/><use href="#s" x="20" y="17"/><use href="#s" x="21" y="17"/><use href="#s" x="49" y="17"/><use href="#s" x="50" y="17"/><use href="#s" x="54" y="17"/><use href="#s" x="36" y="18"/><use href="#s" x="42" y="18"/><use href="#s" x="44" y="18"/><use href="#s" x="45" y="18"/><use href="#s" x="57" y="18"/><use href="#s" x="63" y="18"/><use href="#s" x="33" y="19"/><use href="#s" x="38" y="19"/><use href="#s" x="52" y="19"/><use href="#s" x="59" y="19"/><use href="#s" x="44" y="20"/><use href="#s" x="45" y="20"/><use href="#s" x="50" y="20"/><use href="#s" x="39" y="21"/><use href="#s" x="45" y="21"/><use href="#s" x="49" y="21"/><use href="#s" x="56" y="21"/><use href="#s" x="58" y="21"/><use href="#s" x="61" y="21"/><use href="#s" x="63" y="21"/><use href="#s" x="28" y="22"/><use href="#s" x="37" y="22"/><use href="#s" x="41" y="22"/><use href="#s" x="43" y="22"/><use href="#s" x="47" y="22"/><use href="#s" x="50" y="22"/><use href="#s" x="51" y="22"/><use href="#s" x="55" y="22"/><use href="#s" x="62" y="22"/><use href="#s" x="63" y="22"/><use href="#s" x="28" y="23"/><use href="#s" x="34" y="23"/><use href="#s" x="37" y="23"/><use href="#s" x="50" y="23"/><use href="#s" x="55" y="23"/><use href="#s" x="5" y="24"/><use href="#s" x="33" y="24"/><use href="#s" x="35" y="24"/><use href="#s" x="49" y="24"/><use href="#s" x="50" y="24"/><use href="#s" x="57" y="24"/><use href="#s" x="17" y="25"/><use href="#s" x="34" y="25"/><use href="#s" x="40" y="25"/><use href="#s" x="46" y="25"/><use href="#s" x="51" y="25"/><use href="#s" x="60" y="25"/><use href="#s" x="62" y="25"/><use href="#s" x="14" y="26"/><use href="#s" x="17" y="26"/><use href="#s" x="30" y="26"/><use href="#s" x="47" y="26"/><use href="#s" x="48" y="26"/><use href="#s" x="60" y="26"/><use href="#s" x="2" y="27"/><use href="#s" x="12" y="27"/><use href="#s" x="14" y="27"/><use href="#s" x="30" y="27"/><use href="#s" x="37" y="27"/><use href="#s" x="39" y="27"/><use href="#s" x="52" y="27"/><use href="#s" x="55" y="27"/><use href="#s" x="30" y="28"/><use href="#s" x="35" y="28"/><use href="#s" x="40" y="28"/><use href="#s" x="45" y="28"/><use href="#s" x="50" y="28"/><use href="#s" x="53" y="28"/><use href="#s" x="16" y="29"/><use href="#s" x="22" y="29"/><use href="#s" x="47" y="29"/><use href="#s" x="50" y="29"/><use href="#s" x="55" y="29"/><use href="#s" x="58" y="29"/><use href="#s" x="59" y="29"/><use href="#s" x="61" y="29"/><use href="#s" x="31" y="30"/><use href="#s" x="34" y="30"/><use href="#s" x="41" y="30"/><use href="#s" x="49" y="30"/><use href="#s" x="50" y="30"/><use href="#s" x="51" y="30"/><use href="#s" x="53" y="30"/><use href="#s" x="56" y="30"/><use href="#s" x="59" y="30"/><use href="#s" x="61" y="30"/><use href="#s" x="62" y="30"/><use href="#s" x="24" y="31"/><use href="#s" x="27" y="31"/><use href="#s" x="34" y="31"/><use href="#s" x="38" y="31"/><use href="#s" x="40" y="31"/><use href="#s" x="47" y="31"/><use href="#s" x="55" y="31"/><use href="#s" x="58" y="31"/><use href="#s" x="60" y="31"/><use href="#s" x="15" y="32"/><use href="#s" x="43" y="32"/><use href="#s" x="53" y="32"/><use href="#s" x="58" y="32"/><use href="#s" x="5" y="33"/><use href="#s" x="22" y="33"/><use href="#s" x="32" y="33"/><use href="#s" x="38" y="33"/><use href="#s" x="42" y="33"/><use href="#s" x="45" y="33"/><use href="#s" x="46" y="33"/><use href="#s" x="48" y="33"/><use href="#s" x="53" y="33"/><use href="#s" x="57" y="33"/><use href="#s" x="59" y="33"/><use href="#s" x="62" y="33"/><use href="#s" x="7" y="34"/><use href="#s" x="30" y="34"/><use href="#s" x="35" y="34"/><use href="#s" x="39" y="34"/><use href="#s" x="45" y="34"/><use href="#s" x="46" y="34"/><use href="#s" x="47" y="34"/><use href="#s" x="49" y="34"/><use href="#s" x="55" y="34"/><use href="#s" x="59" y="34"/><use href="#s" x="63" y="34"/><use href="#s" x="6" y="35"/><use href="#s" x="12" y="35"/><use href="#s" x="18" y="35"/><use href="#s" x="25" y="35"/><use href="#s" x="26" y="35"/><use href="#s" x="35" y="35"/><use href="#s" x="41" y="35"/><use href="#s" x="51" y="35"/><use href="#s" x="52" y="35"/><use href="#s" x="53" y="35"/><use href="#s" x="61" y="35"/><use href="#s" x="62" y="35"/><use href="#s" x="23" y="36"/><use href="#s" x="24" y="36"/><use href="#s" x="33" y="36"/><use href="#s" x="37" y="36"/><use href="#s" x="41" y="36"/><use href="#s" x="44" y="36"/><use href="#s" x="46" y="36"/><use href="#s" x="53" y="36"/><use href="#s" x="57" y="36"/><use href="#s" x="60" y="36"/><use href="#s" x="23" y="37"/><use href="#s" x="25" y="37"/><use href="#s" x="26" y="37"/><use href="#s" x="27" y="37"/><use href="#s" x="38" y="37"/><use href="#s" x="39" y="37"/><use href="#s" x="41" y="37"/><use href="#s" x="46" y="37"/><use href="#s" x="47" y="37"/><use href="#s" x="52" y="37"/><use href="#s" x="53" y="37"/><use href="#s" x="55" y="37"/><use href="#s" x="57" y="37"/><use href="#s" x="61" y="37"/><use href="#s" x="19" y="38"/><use href="#s" x="34" y="38"/><use href="#s" x="35" y="38"/><use href="#s" x="46" y="38"/><use href="#s" x="47" y="38"/><use href="#s" x="48" y="38"/><use href="#s" x="57" y="38"/><use href="#s" x="58" y="38"/><use href="#s" x="60" y="38"/><use href="#s" x="61" y="38"/><use href="#s" x="62" y="38"/><use href="#s" x="21" y="39"/><use href="#s" x="26" y="39"/><use href="#s" x="28" y="39"/><use href="#s" x="37" y="39"/><use href="#s" x="40" y="39"/><use href="#s" x="44" y="39"/><use href="#s" x="49" y="39"/><use href="#s" x="52" y="39"/><use href="#s" x="60" y="39"/><use href="#s" x="61" y="39"/><use href="#s" x="62" y="39"/><use href="#s" x="63" y="39"/><use href="#s" x="6" y="40"/><use href="#s" x="36" y="40"/><use href="#s" x="40" y="40"/><use href="#s" x="41" y="40"/><use href="#s" x="51" y="40"/><use href="#s" x="53" y="40"/><use href="#s" x="60" y="40"/><use href="#s" x="61" y="40"/><use href="#s" x="63" y="40"/><use href="#s" x="20" y="41"/><use href="#s" x="30" y="41"/><use href="#s" x="32" y="41"/><use href="#s" x="35" y="41"/><use href="#s" x="41" y="41"/><use href="#s" x="45" y="41"/><use href="#s" x="48" y="41"/><use href="#s" x="52" y="41"/><use href="#s" x="53" y="41"/><use href="#s" x="54" y="41"/><use href="#s" x="58" y="41"/><use href="#s" x="62" y="41"/><use href="#s" x="18" y="42"/><use href="#s" x="45" y="42"/><use href="#s" x="47" y="42"/><use href="#s" x="50" y="42"/><use href="#s" x="52" y="42"/><use href="#s" x="53" y="42"/><use href="#s" x="54" y="42"/><use href="#s" x="57" y="42"/><use href="#s" x="60" y="42"/><use href="#s" x="17" y="43"/><use href="#s" x="18" y="43"/><use href="#s" x="22" y="43"/><use href="#s" x="34" y="43"/><use href="#s" x="37" y="43"/><use href="#s" x="39" y="43"/><use href="#s" x="48" y="43"/><use href="#s" x="49" y="43"/><use href="#s" x="51" y="43"/><use href="#s" x="52" y="43"/><use href="#s" x="53" y="43"/><use href="#s" x="54" y="43"/><use href="#s" x="55" y="43"/><use href="#s" x="57" y="43"/><use href="#s" x="62" y="43"/><use href="#s" x="63" y="43"/><use href="#s" x="7" y="44"/><use href="#s" x="13" y="44"/><use href="#s" x="31" y="44"/><use href="#s" x="35" y="44"/><use href="#s" x="38" y="44"/><use href="#s" x="41" y="44"/><use href="#s" x="42" y="44"/><use href="#s" x="46" y="44"/><use href="#s" x="49" y="44"/><use href="#s" x="50" y="44"/><use href="#s" x="55" y="44"/><use href="#s" x="56" y="44"/><use href="#s" x="57" y="44"/><use href="#s" x="58" y="44"/><use href="#s" x="62" y="44"/><use href="#s" x="25" y="45"/><use href="#s" x="28" y="45"/><use href="#s" x="40" y="45"/><use href="#s" x="43" y="45"/><use href="#s" x="44" y="45"/><use href="#s" x="46" y="45"/><use href="#s" x="51" y="45"/><use href="#s" x="52" y="45"/><use href="#s" x="53" y="45"/><use href="#s" x="57" y="45"/><use href="#s" x="58" y="45"/><use href="#s" x="60" y="45"/><use href="#s" x="62" y="45"/><use href="#s" x="11" y="46"/><use href="#s" x="20" y="46"/><use href="#s" x="24" y="46"/><use href="#s" x="38" y="46"/><use href="#s" x="41" y="46"/><use href="#s" x="42" y="46"/><use href="#s" x="44" y="46"/><use href="#s" x="45" y="46"/><use href="#s" x="49" y="46"/><use href="#s" x="53" y="46"/><use href="#s" x="54" y="46"/><use href="#s" x="57" y="46"/><use href="#s" x="62" y="46"/><use href="#s" x="63" y="46"/><use href="#s" x="12" y="47"/><use href="#s" x="14" y="47"/><use href="#s" x="30" y="47"/><use href="#s" x="33" y="47"/><use href="#s" x="34" y="47"/><use href="#s" x="37" y="47"/><use href="#s" x="38" y="47"/><use href="#s" x="42" y="47"/><use href="#s" x="46" y="47"/><use href="#s" x="47" y="47"/><use href="#s" x="48" y="47"/><use href="#s" x="49" y="47"/><use href="#s" x="51" y="47"/><use href="#s" x="52" y="47"/><use href="#s" x="53" y="47"/><use href="#s" x="54" y="47"/><use href="#s" x="56" y="47"/><use href="#s" x="57" y="47"/><use href="#s" x="59" y="47"/><use href="#s" x="62" y="47"/><use href="#s" x="8" y="48"/><use href="#s" x="18" y="48"/><use href="#s" x="21" y="48"/><use href="#s" x="25" y="48"/><use href="#s" x="28" y="48"/><use href="#s" x="31" y="48"/><use href="#s" x="34" y="48"/><use href="#s" x="46" y="48"/><use href="#s" x="49" y="48"/><use href="#s" x="52" y="48"/><use href="#s" x="54" y="48"/><use href="#s" x="55" y="48"/><use href="#s" x="56" y="48"/><use href="#s" x="57" y="48"/><use href="#s" x="60" y="48"/><use href="#s" x="62" y="48"/><use href="#s" x="4" y="49"/><use href="#s" x="28" y="49"/><use href="#s" x="30" y="49"/><use href="#s" x="33" y="49"/><use href="#s" x="37" y="49"/><use href="#s" x="43" y="49"/><use href="#s" x="44" y="49"/><use href="#s" x="45" y="49"/><use href="#s" x="47" y="49"/><use href="#s" x="51" y="49"/><use href="#s" x="52" y="49"/><use href="#s" x="54" y="49"/><use href="#s" x="56" y="49"/><use href="#s" x="57" y="49"/><use href="#s" x="60" y="49"/><use href="#s" x="61" y="49"/><use href="#s" x="63" y="49"/><use href="#s" x="2" y="50"/><use href="#s" x="13" y="50"/><use href="#s" x="21" y="50"/><use href="#s" x="30" y="50"/><use href="#s" x="36" y="50"/><use href="#s" x="38" y="50"/><use href="#s" x="40" y="50"/><use href="#s" x="44" y="50"/><use href="#s" x="45" y="50"/><use href="#s" x="46" y="50"/><use href="#s" x="48" y="50"/><use href="#s" x="52" y="50"/><use href="#s" x="54" y="50"/><use href="#s" x="55" y="50"/><use href="#s" x="56" y="50"/><use href="#s" x="57" y="50"/><use href="#s" x="61" y="50"/><use href="#s" x="62" y="50"/><use href="#s" x="63" y="50"/><use href="#s" x="19" y="51"/><use href="#s" x="26" y="51"/><use href="#s" x="33" y="51"/><use href="#s" x="35" y="51"/><use href="#s" x="41" y="51"/><use href="#s" x="42" y="51"/><use href="#s" x="45" y="51"/><use href="#s" x="47" y="51"/><use href="#s" x="49" y="51"/><use href="#s" x="51" y="51"/><use href="#s" x="55" y="51"/><use href="#s" x="57" y="51"/><use href="#s" x="58" y="51"/><use href="#s" x="60" y="51"/><use href="#s" x="61" y="51"/><use href="#s" x="9" y="52"/><use href="#s" x="15" y="52"/><use href="#s" x="26" y="52"/><use href="#s" x="35" y="52"/><use href="#s" x="40" y="52"/><use href="#s" x="46" y="52"/><use href="#s" x="47" y="52"/><use href="#s" x="49" y="52"/><use href="#s" x="50" y="52"/><use href="#s" x="51" y="52"/><use href="#s" x="54" y="52"/><use href="#s" x="56" y="52"/><use href="#s" x="58" y="52"/><use href="#s" x="59" y="52"/><use href="#s" x="60" y="52"/><use href="#s" x="61" y="52"/><use href="#s" x="62" y="52"/><use href="#s" x="63" y="52"/><use href="#s" x="21" y="53"/><use href="#s" x="22" y="53"/><use href="#s" x="27" y="53"/><use href="#s" x="28" y="53"/><use href="#s" x="31" y="53"/><use href="#s" x="36" y="53"/><use href="#s" x="37" y="53"/><use href="#s" x="38" y="53"/><use href="#s" x="44" y="53"/><use href="#s" x="45" y="53"/><use href="#s" x="46" y="53"/><use href="#s" x="48" y="53"/><use href="#s" x="49" y="53"/><use href="#s" x="58" y="53"/><use href="#s" x="60" y="53"/><use href="#s" x="63" y="53"/><use href="#s" x="8" y="54"/><use href="#s" x="10" y="54"/><use href="#s" x="18" y="54"/><use href="#s" x="31" y="54"/><use href="#s" x="32" y="54"/><use href="#s" x="34" y="54"/><use href="#s" x="36" y="54"/><use href="#s" x="41" y="54"/><use href="#s" x="43" y="54"/><use href="#s" x="44" y="54"/><use href="#s" x="45" y="54"/><use href="#s" x="46" y="54"/><use href="#s" x="47" y="54"/><use href="#s" x="48" y="54"/><use href="#s" x="51" y="54"/><use href="#s" x="52" y="54"/><use href="#s" x="54" y="54"/><use href="#s" x="55" y="54"/><use href="#s" x="56" y="54"/><use href="#s" x="59" y="54"/><use href="#s" x="60" y="54"/><use href="#s" x="62" y="54"/><use href="#s" x="63" y="54"/><use href="#s" x="14" y="55"/><use href="#s" x="30" y="55"/><use href="#s" x="33" y="55"/><use href="#s" x="34" y="55"/><use href="#s" x="35" y="55"/><use href="#s" x="40" y="55"/><use href="#s" x="43" y="55"/><use href="#s" x="45" y="55"/><use href="#s" x="49" y="55"/><use href="#s" x="52" y="55"/><use href="#s" x="53" y="55"/><use href="#s" x="55" y="55"/><use href="#s" x="56" y="55"/><use href="#s" x="57" y="55"/><use href="#s" x="59" y="55"/><use href="#s" x="60" y="55"/><use href="#s" x="63" y="55"/><use href="#s" x="24" y="56"/><use href="#s" x="30" y="56"/><use href="#s" x="32" y="56"/><use href="#s" x="35" y="56"/><use href="#s" x="38" y="56"/><use href="#s" x="39" y="56"/><use href="#s" x="40" y="56"/><use href="#s" x="42" y="56"/><use href="#s" x="44" y="56"/><use href="#s" x="47" y="56"/><use href="#s" x="50" y="56"/><use href="#s" x="51" y="56"/><use href="#s" x="55" y="56"/><use href="#s" x="56" y="56"/><use href="#s" x="57" y="56"/><use href="#s" x="58" y="56"/><use href="#s" x="59" y="56"/><use href="#s" x="60" y="56"/><use href="#s" x="62" y="56"/><use href="#s" x="63" y="56"/><use href="#s" x="20" y="57"/><use href="#s" x="25" y="57"/><use href="#s" x="31" y="57"/><use href="#s" x="34" y="57"/><use href="#s" x="37" y="57"/><use href="#s" x="38" y="57"/><use href="#s" x="41" y="57"/><use href="#s" x="43" y="57"/><use href="#s" x="48" y="57"/><use href="#s" x="49" y="57"/><use href="#s" x="52" y="57"/><use href="#s" x="53" y="57"/><use href="#s" x="54" y="57"/><use href="#s" x="55" y="57"/><use href="#s" x="56" y="57"/><use href="#s" x="57" y="57"/><use href="#s" x="58" y="57"/><use href="#s" x="59" y="57"/><use href="#s" x="61" y="57"/><use href="#s" x="62" y="57"/><use href="#s" x="63" y="57"/><use href="#s" x="9" y="58"/><use href="#s" x="15" y="58"/><use href="#s" x="16" y="58"/><use href="#s" x="29" y="58"/><use href="#s" x="31" y="58"/><use href="#s" x="37" y="58"/><use href="#s" x="41" y="58"/><use href="#s" x="43" y="58"/><use href="#s" x="44" y="58"/><use href="#s" x="46" y="58"/><use href="#s" x="47" y="58"/><use href="#s" x="48" y="58"/><use href="#s" x="49" y="58"/><use href="#s" x="51" y="58"/><use href="#s" x="53" y="58"/><use href="#s" x="54" y="58"/><use href="#s" x="55" y="58"/><use href="#s" x="56" y="58"/><use href="#s" x="57" y="58"/><use href="#s" x="58" y="58"/><use href="#s" x="59" y="58"/><use href="#s" x="60" y="58"/><use href="#s" x="61" y="58"/><use href="#s" x="62" y="58"/><use href="#s" x="63" y="58"/><use href="#s" x="24" y="59"/><use href="#s" x="30" y="59"/><use href="#s" x="33" y="59"/><use href="#s" x="35" y="59"/><use href="#s" x="37" y="59"/><use href="#s" x="40" y="59"/><use href="#s" x="41" y="59"/><use href="#s" x="44" y="59"/><use href="#s" x="47" y="59"/><use href="#s" x="48" y="59"/><use href="#s" x="50" y="59"/><use href="#s" x="51" y="59"/><use href="#s" x="52" y="59"/><use href="#s" x="54" y="59"/><use href="#s" x="56" y="59"/><use href="#s" x="57" y="59"/><use href="#s" x="59" y="59"/><use href="#s" x="60" y="59"/><use href="#s" x="61" y="59"/><use href="#s" x="62" y="59"/><use href="#s" x="63" y="59"/><use href="#s" x="9" y="60"/><use href="#s" x="19" y="60"/><use href="#s" x="24" y="60"/><use href="#s" x="32" y="60"/><use href="#s" x="33" y="60"/><use href="#s" x="35" y="60"/><use href="#s" x="43" y="60"/><use href="#s" x="45" y="60"/><use href="#s" x="52" y="60"/><use href="#s" x="53" y="60"/><use href="#s" x="54" y="60"/><use href="#s" x="55" y="60"/><use href="#s" x="57" y="60"/><use href="#s" x="59" y="60"/><use href="#s" x="61" y="60"/><use href="#s" x="62" y="60"/><use href="#s" x="63" y="60"/><use href="#s" x="27" y="61"/><use href="#s" x="30" y="61"/><use href="#s" x="34" y="61"/><use href="#s" x="36" y="61"/><use href="#s" x="41" y="61"/><use href="#s" x="42" y="61"/><use href="#s" x="43" y="61"/><use href="#s" x="44" y="61"/><use href="#s" x="45" y="61"/><use href="#s" x="46" y="61"/><use href="#s" x="48" y="61"/><use href="#s" x="50" y="61"/><use href="#s" x="53" y="61"/><use href="#s" x="55" y="61"/><use href="#s" x="57" y="61"/><use href="#s" x="59" y="61"/><use href="#s" x="60" y="61"/><use href="#s" x="61" y="61"/><use href="#s" x="62" y="61"/><use href="#s" x="63" y="61"/><use href="#s" x="14" y="62"/><use href="#s" x="18" y="62"/><use href="#s" x="22" y="62"/><use href="#s" x="33" y="62"/><use href="#s" x="34" y="62"/><use href="#s" x="35" y="62"/><use href="#s" x="36" y="62"/><use href="#s" x="42" y="62"/><use href="#s" x="46" y="62"/><use href="#s" x="47" y="62"/><use href="#s" x="49" y="62"/><use href="#s" x="50" y="62"/><use href="#s" x="51" y="62"/><use href="#s" x="52" y="62"/><use href="#s" x="54" y="62"/><use href="#s" x="56" y="62"/><use href="#s" x="57" y="62"/><use href="#s" x="59" y="62"/><use href="#s" x="60" y="62"/><use href="#s" x="61" y="62"/><use href="#s" x="62" y="62"/><use href="#s" x="63" y="62"/><use href="#s" x="11" y="63"/><use href="#s" x="21" y="63"/><use href="#s" x="40" y="63"/><use href="#s" x="41" y="63"/><use href="#s" x="42" y="63"/><use href="#s" x="45" y="63"/><use href="#s" x="46" y="63"/><use href="#s" x="50" y="63"/><use href="#s" x="51" y="63"/><use href="#s" x="54" y="63"/><use href="#s" x="55" y="63"/><use href="#s" x="56" y="63"/><use href="#s" x="57" y="63"/><use href="#s" x="58" y="63"/><use href="#s" x="59" y="63"/><use href="#s" x="60" y="63"/><use href="#s" x="61" y="63"/><use href="#s" x="62" y="63"/><use href="#s" x="63" y="63"/></svg>
