<?xml version="1.0" encoding="UTF-8" standalone="no"?>
<!-- Created with Inkscape (http://www.inkscape.org/) -->

<svg
   width="80"
   height="80"
   viewBox="105 0 80 80"
   version="1.1"
   id="svg5"
   inkscape:version="1.3.2 (091e20e, 2023-11-25, custom)"
   sodipodi:docname="default.svg"
   xml:space="preserve"
   inkscape:export-filename="bitmap.png"
   inkscape:export-xdpi="96"
   inkscape:export-ydpi="96"
   xmlns:inkscape="http://www.inkscape.org/namespaces/inkscape"
   xmlns:sodipodi="http://sodipodi.sourceforge.net/DTD/sodipodi-0.dtd"
   xmlns="http://www.w3.org/2000/svg"
   xmlns:svg="http://www.w3.org/2000/svg"><sodipodi:namedview
     id="namedview7"
     pagecolor="#ffffff"
     bordercolor="#000000"
     borderopacity="1"
     inkscape:showpageshadow="0"
     inkscape:pageopacity="0"
     inkscape:pagecheckerboard="0"
     inkscape:deskcolor="#383838"
     inkscape:document-units="px"
     showgrid="false"
     inkscape:zoom="0.4204826"
     inkscape:cx="128.42386"
     inkscape:cy="608.82424"
     inkscape:window-width="1920"
     inkscape:window-height="1051"
     inkscape:window-x="-9"
     inkscape:window-y="-9"
     inkscape:window-maximized="1"
     inkscape:current-layer="layer1"><inkscape:page
       x="0"
       y="0"
       width="80"
       height="80"
       id="page2"
       margin="0"
       bleed="0" /></sodipodi:namedview><defs
     id="defs2" /><g
     inkscape:groupmode="layer"
     id="layer5"
     inkscape:label="Capa 3"
     transform="translate(969.59369,82.866364)"><rect
       style="fill:#000000;stroke:none;stroke-width:14.4715"
       id="rect2-4-37"
       width="80"
       height="80"
       x="-864.59369"
       y="-82.866364" /><path
       id="rect3-4"
       style="fill:#f9f9f9;stroke:none;stroke-width:14.359"
       d="m -588.00053,-70.978681 -12.73242,12.73242 a 8.1594583,8.5556809 0 0 1 -6.44922,-8.36327 8.1594583,8.5556809 0 0 1 0.32031,-2.36914 8.1594583,8.5556809 0 0 0 -4.13867,7.4453 8.1594583,8.5556809 0 0 0 5.47656,8.07812 l -12.47657,12.47657 13.27344,13.27344 a 8.1594583,8.5556809 0 0 0 -6.11327,8.28126 8.1594583,8.5556809 0 0 0 4.13867,7.4453 8.1594583,8.5556809 0 0 1 -0.31836,-2.36914 8.1594583,8.5556809 0 0 1 7.16015,-8.49023 l 11.85938,11.85937 11.55469,-11.55469 a 8.1594583,8.5556809 0 0 1 5.78711,8.18555 8.1594583,8.5556809 0 0 1 -0.32032,2.36914 8.1594583,8.5556809 0 0 0 4.13867,-7.44531 8.1594583,8.5556809 0 0 0 -4.88085,-7.83399 l 13.7207,-13.7207 -13.1211,-13.12109 a 8.1594583,8.5556809 0 0 0 4.1211,-7.4336 8.1594583,8.5556809 0 0 0 -4.13867,-7.44531 8.1594583,8.5556809 0 0 1 0.32031,2.36914 8.1594583,8.5556809 0 0 1 -4.94922,7.86328 z m 0,10 8.99999,9 -8.99999,9 -9,-9 z m -12,11 9,9 -9,9 -8.99999,-9 z m 25.00001,0 8.99999,9 -8.99999,9 -9,-9 z m -13.00001,11 8.99999,9 -8.99999,9 -9,-9 z"
       transform="translate(-236.59322,-1.8877119)" /></g></svg>
